<svg id="svg" xmlns="http://www.w3.org/2000/svg" xmlns:xlink="http://www.w3.org/1999/xlink" width="400" height="400" viewBox="0, 0, 400,400"><g id="svgg"><path id="path0" d="M180.000 106.871 L 180.000 213.742 150.597 185.572 C 121.218 157.425,90.000 155.875,90.000 182.562 C 90.000 200.634,182.095 290.000,200.719 290.000 C 224.759 290.000,313.714 194.103,306.679 175.770 C 297.910 152.917,279.936 156.320,248.047 186.871 L 220.000 213.742 220.000 106.871 C 220.000 6.667,218.752 0.000,200.000 0.000 C 181.248 0.000,180.000 6.667,180.000 106.871 M0.000 328.000 C 0.000 399.757,0.674 400.000,200.000 400.000 C 399.326 400.000,400.000 399.757,400.000 328.000 C 400.000 264.264,363.271 255.059,358.104 317.500 L 355.000 355.000 200.000 355.000 L 45.000 355.000 41.896 317.500 C 36.729 255.059,0.000 264.264,0.000 328.000 " stroke="none" fill="#000000" fill-rule="evenodd"></path></g></svg>