<?xml version="1.0" encoding="UTF-8"?>
<svg id="Layer_1" xmlns="http://www.w3.org/2000/svg" version="1.1" viewBox="0 0 42 42">
  <!-- Generator: Adobe Illustrator 29.2.1, SVG Export Plug-In . SVG Version: 2.1.0 Build 116)  -->
  <defs>
    <style>
      .st0 {
        fill: #072635;
      }

      .st1 {
        fill: #fff;
      }

      .st2 {
        fill: #f6f7f8;
      }
    </style>
  </defs>
  <g id="FemaleIcon">
    <circle id="Ellipse_9" class="st2" cx="21" cy="21" r="21"/>
    <path id="female_FILL0_wght300_GRAD0_opsz24" class="st0" d="M26,11.9l.3,5.4c-.2,0-.3,0-.6-.2l-1.3-.8-1.5,2.7c1.2.9,2,2.3,2.3,3.8s0,3.1-.8,4.4c-.8,1.5-2.2,2.5-3.9,3-1.6.5-3.4.2-4.8-.7-1.5-.8-2.6-2.2-3-3.8-.5-1.6-.2-3.4.6-4.8.8-1.3,2-2.4,3.4-2.9,1.4-.5,3-.5,4.5.1l1.5-2.7-1.3-.8c-.2-.1-.4-.3-.4-.6s4.9-2,5-2.2M21.1,20c-1-.6-2.3-.8-3.4-.5-1.2.3-2.2,1.1-2.8,2.1s-.8,2.3-.5,3.4c.3,1.2,1.1,2.2,2.1,2.8,1,.6,2.3.8,3.4.5,1.2-.3,2.2-1.1,2.8-2.1.6-1,.8-2.3.5-3.4-.3-1.2-1.1-2.2-2.1-2.8h0l3-5.1"/>
    <path class="st1" d="M27.5,14.3"/>
  </g>
</svg>